<svg width="900" height="900" xmlns="http://www.w3.org/2000/svg">
 <g>
  <title>background</title>
  <rect x="-1" y="-1" width="902" height="902" id="canvas_background" fill="none"/>
 </g>

 <g>
  <title>Layer 1</title>
  <g id="svg_1">
   <g id="svg_2">
    <g id="svg_3">
     <g id="svg_4">
      <polygon fill="none" stroke="#2BB673" stroke-width="5" stroke-miterlimit="10" points="35.3,170.8 857.3,170.8 857.3,713       36.7,713     " id="svg_5"/>
      <line fill="none" stroke="#2BB673" stroke-width="5" stroke-miterlimit="10" x1="370.2" y1="161.5" x2="370.2" y2="180.1" id="svg_6"/>
     </g>
     <line fill="none" stroke="#2BB673" stroke-width="5" stroke-miterlimit="10" x1="319" y1="161" x2="319" y2="179.7" id="svg_7"/>
    </g>
    <line fill="none" stroke="#2BB673" stroke-width="5" stroke-miterlimit="10" x1="746.2" y1="161.6" x2="746.2" y2="180.3" id="svg_8"/>
    <line fill="none" stroke="#2BB673" stroke-width="5" stroke-miterlimit="10" x1="800.2" y1="162.8" x2="800.2" y2="181.5" id="svg_9"/>
   </g>
   <line fill="none" stroke="#2BB673" stroke-width="5" stroke-miterlimit="10" x1="866.8" y1="323.2" x2="847.2" y2="323.2" id="svg_10"/>
   <line fill="none" stroke="#2BB673" stroke-width="5" stroke-miterlimit="10" x1="866.8" y1="400.2" x2="847.2" y2="400.2" id="svg_11"/>
  </g>
  <rect x="748.7" y="165.1" fill="#FFFFFF" width="49" height="13" id="svg_12"/>
  <rect x="321.7" y="164.2" fill="#FFFFFF" width="46" height="13" id="svg_13"/>
  <polygon fill="#FFFFFF" points="850.3,397.7 850.7,325.6 863.7,325.6 863.3,397.7 " id="svg_14"/>
  <g id="nike">
   <rect class="nike" x="407.1" y="629.9" fill="#e3f4fc" width="169.4" height="76.5" id="svg_15"/>
   <path class="nike-logo" fill="#606061" d="m468.9,678.6c-1.7,-0.1 -3.2,-0.5 -4.3,-1.4c-0.2,-0.2 -0.7,-0.7 -0.9,-0.9c-0.5,-0.6 -0.8,-1.1 -1,-1.7c-0.6,-1.9 -0.3,-4.4 0.9,-7.1c1.1,-2.3 2.7,-4.7 5.6,-7.9c0.4,-0.5 1.7,-1.9 1.7,-1.9s-0.1,0.1 -0.2,0.3c-0.7,1.2 -1.4,2.7 -1.7,4c-0.6,2 -0.5,3.8 0.2,5.1c0.5,0.9 1.3,1.7 2.2,2.2c1.6,0.8 3.9,0.8 6.8,0.2c0.2,0 9.9,-2.6 21.6,-5.7c11.7,-3.1 21.3,-5.7 21.3,-5.7s-27.2,11.6 -41.3,17.7c-2.2,1 -2.8,1.2 -3.9,1.6c-2.7,0.9 -5.1,1.3 -7,1.2z" id="svg_16"/>
   <line fill="none" stroke="#A7A9AC" stroke-width="2" stroke-miterlimit="10" x1="455.5" y1="621.7" x2="455.5" y2="630.7" id="svg_17"/>
   <line fill="none" stroke="#A7A9AC" stroke-width="2" stroke-miterlimit="10" x1="420.5" y1="620.9" x2="420.5" y2="629.9" id="svg_18"/>
   <polygon class="nike" fill="#d9f0fc" points="44.5,262.6 389.1,262.6 389.1,561.9 276.5,561.9 276.5,447.2 43.8,447.2  " id="svg_19"/>
   <path class="nike-logo" fill="#606061" d="m169.7,394c-3.6,-0.1 -6.5,-1.1 -8.8,-2.9c-0.4,-0.3 -1.5,-1.4 -1.8,-1.8c-0.9,-1.2 -1.6,-2.3 -2,-3.6c-1.3,-3.9 -0.6,-9 1.9,-14.5c2.2,-4.8 5.5,-9.5 11.4,-16.1c0.9,-1 3.4,-3.8 3.4,-3.8s-0.1,0.2 -0.3,0.5c-1.5,2.5 -2.8,5.5 -3.5,8.1c-1.1,4.2 -1,7.7 0.4,10.5c1,1.9 2.6,3.6 4.5,4.5c3.3,1.6 8,1.7 13.9,0.4c0.4,-0.1 20.3,-5.4 44.2,-11.7c23.9,-6.4 43.5,-11.6 43.5,-11.6s-55.6,23.8 -84.4,36.1c-4.6,2 -5.8,2.4 -7.9,3.2c-5.6,2 -10.5,2.9 -14.5,2.7z" id="svg_20"/>
   <line fill="none" stroke="#A7A9AC" stroke-width="2" stroke-miterlimit="10" x1="314.3" y1="562.2" x2="314.3" y2="571.2" id="svg_21"/>
   <line fill="none" stroke="#A7A9AC" stroke-width="2" stroke-miterlimit="10" x1="353.5" y1="562.2" x2="353.5" y2="571.2" id="svg_22"/>
   <line fill="none" stroke="#A7A9AC" stroke-width="2" stroke-miterlimit="10" x1="162.5" y1="253.6" x2="162.5" y2="262.6" id="svg_23"/>
   <line fill="none" stroke="#A7A9AC" stroke-width="2" stroke-miterlimit="10" x1="255" y1="253.6" x2="255" y2="262.6" id="svg_24"/>
   <line fill="none" stroke="#A7A9AC" stroke-width="2" stroke-miterlimit="10" x1="397.1" y1="372.7" x2="388.1" y2="372.7" id="svg_25"/>
   <line fill="none" stroke="#A7A9AC" stroke-width="2" stroke-miterlimit="10" x1="398.1" y1="408.5" x2="389.1" y2="408.5" id="svg_26"/>
  </g>
  <g id="puma">
   <g id="svg_27">
    <rect class="puma" x="455.5" y="262.6" fill="#f9e5e5" width="292.4" height="302" id="svg_28"/>
    <line fill="none" stroke="#A7A9AC" stroke-width="2" stroke-miterlimit="10" x1="581.4" y1="253.6" x2="581.4" y2="262.6" id="svg_29"/>
    <line fill="none" stroke="#A7A9AC" stroke-width="2" stroke-miterlimit="10" x1="483.6" y1="253.6" x2="483.6" y2="262.6" id="svg_30"/>
    <line fill="none" stroke="#A7A9AC" stroke-width="2" stroke-miterlimit="10" x1="455.5" y1="552.2" x2="446.5" y2="552.2" id="svg_31"/>
    <line fill="none" stroke="#A7A9AC" stroke-width="2" stroke-miterlimit="10" x1="455.5" y1="513" x2="446.5" y2="513" id="svg_32"/>
    <line fill="none" stroke="#A7A9AC" stroke-width="2" stroke-miterlimit="10" x1="757" y1="323" x2="748" y2="323" id="svg_33"/>
    <line fill="none" stroke="#A7A9AC" stroke-width="2" stroke-miterlimit="10" x1="757" y1="378" x2="748" y2="378" id="svg_34"/>
   </g>
   <g id="svg_35">
    <g id="svg_36">
     <path class="puma-logo" fill="#606061" d="m608.51412,377.77986c-0.4,0.1 -0.8,1.6 -1.6,2.3c-0.6,0.6 -1.3,0.5 -1.7,1.2c-0.1,0.3 -0.1,0.7 -0.3,1.1c-0.3,0.9 -1.5,0.9 -1.5,1.9s0.9,1.2 1.8,1.9c0.6,0.6 0.7,1 1.5,1.2c0.7,0.2 1.6,-0.5 2.5,-0.2c0.7,0.2 1.4,0.4 1.6,1.1c0.1,0.7 0,1.8 -0.9,1.6c-0.3,0 -1.6,-0.5 -3.2,-0.3c-1.9,0.2 -4.1,0.8 -4.3,3c-0.1,1.2 1.4,2.6 2.8,2.3c1,-0.2 0.5,-1.4 1.1,-1.9c0.7,-0.7 4.7,2.5 8.4,2.5c1.6,0 2.7,-0.4 3.9,-1.6c0.1,-0.1 0.2,-0.3 0.4,-0.3s0.4,0.2 0.5,0.2c3,2.4 5.2,7.2 16.2,7.2c1.5,0 3.3,0.7 4.7,2c1.3,1.2 2,3 2.8,4.9c1.1,2.8 3.1,5.5 6,8.5c0.2,0.2 2.6,2.1 2.8,2.2c0,0 0.2,0.4 0.1,0.7c-0.1,1.8 -0.3,7.1 3.6,7.3c1,0 0.7,-0.6 0.7,-1.1c0,-0.9 -0.2,-1.8 0.3,-2.8c0.7,-1.3 -1.4,-1.9 -1.3,-4.7c0,-2.1 -1.7,-1.7 -2.6,-3.3c-0.5,-0.9 -1,-1.4 -0.9,-2.5c0.2,-6.3 -1.4,-10.5 -2.1,-11.5c-0.6,-0.8 -1.1,-1.1 -0.6,-1.4c3.3,-2.2 4,-4.2 4,-4.2c1.7,-4.1 3.3,-7.8 5.5,-9.5c0.4,-0.3 1.6,-1.2 2.2,-1.5c2,-1 3.1,-1.5 3.7,-2.1c0.9,-0.9 1.7,-2.8 0.8,-3.9c-1.1,-1.4 -3,-0.3 -3.9,0.2c-6,3.6 -6.9,9.9 -9,13.5c-1.7,2.9 -4.4,5 -6.8,5.2c-1.8,0.1 -3.8,-0.2 -5.7,-1.1c-4.8,-2.1 -7.4,-4.8 -8,-5.2c-1.3,-1 -11.2,-10.7 -19.2,-11.1c0,0 -1,-2 -1.2,-2c-0.6,-0.1 -1.2,1.2 -1.6,1.3c-0.4,0.3 -1.1,-1.2 -1.5,-1.1" id="svg_37"/>
     <path class="puma-logo" fill="#606061" d="m573.21412,435.67986c-0.8,0 -1.4,-0.6 -1.4,-1.4l0,-25l-8.3,0l0,27.5c0,1.3 1.1,2.4 2.4,2.4l14.4,0c1.4,0 2.4,-1.1 2.4,-2.4l0,-27.5l-8.2,0l0,25c0.1,0.8 -0.6,1.4 -1.3,1.4" id="svg_38"/>
     <path class="puma-logo" fill="#606061" d="m600.81412,409.27986l-12.5,0c-1.5,0 -2.7,1.2 -2.7,2.7l0,27.3l8.3,0l0,-25c0,-0.8 0.6,-1.4 1.4,-1.4c0.8,0 1.4,0.6 1.4,1.4l0,25.1l8.2,0l0,-25.1c0,-0.8 0.6,-1.4 1.4,-1.4c0.8,0 1.4,0.6 1.4,1.4l0,25l8.3,0l0,-27.3c0,-1.5 -1.2,-2.7 -2.7,-2.7l-12.5,0" id="svg_39"/>
     <path class="puma-logo" fill="#606061" d="m552.51412,414.27986c0,-0.8 -0.7,-1.4 -1.4,-1.4l-1.4,0l0,15.2l1.4,0c0.7,0 1.4,-0.6 1.4,-1.4l0,-12.4zm5.5,17.5l-8.3,0l0,7.5l-8.3,0l0,-30l16.6,0c1.5,0 2.7,1.2 2.7,2.7l0,17c0,1.6 -1.2,2.8 -2.7,2.8" id="svg_40"/>
     <path class="puma-logo" fill="#606061" d="m644.31412,432.57986c-1.7,0 -3.1,1.4 -3.1,3.2c0,1.7 1.4,3.2 3.1,3.2c1.7,0 3.1,-1.4 3.1,-3.2s-1.3,-3.2 -3.1,-3.2l0,0zm3.7,3.2c0,2 -1.6,3.7 -3.7,3.7c-2,0 -3.7,-1.6 -3.7,-3.7c0,-2 1.6,-3.7 3.6,-3.7c2.2,0 3.8,1.6 3.8,3.7" id="svg_41"/>
     <path class="puma-logo" fill="#606061" d="m644.01412,435.47986c0.6,0 0.9,-0.2 0.9,-0.6c0,-0.4 -0.3,-0.5 -0.8,-0.5l-0.2,0l0,1.2l0.1,0l0,-0.1zm2.1,2.4l-1,0l-1.3,-1.7l0,1.7l-0.8,0l0,-4.2l0.8,0c1.1,0 1.8,0.4 1.8,1.3c0,0.6 -0.4,1 -0.9,1.2l-0.1,0l1.5,1.7" id="svg_42"/>
     <path class="puma-logo" fill="#606061" d="m629.81412,428.07986l0,-13.8c0,-0.8 -0.6,-1.3 -1.4,-1.3c-0.8,0 -1.4,0.6 -1.4,1.4l0,13.8l2.8,0l0,-0.1zm0,11.2l0,-7.5l-2.8,0l0,7.5l-8.2,0l0,-27.3c0,-1.5 1.2,-2.7 2.7,-2.7l13.9,0c1.5,0 2.7,1.2 2.7,2.7l0,27.3l-8.3,0" id="svg_43"/>
    </g>
   </g>
  </g>
  <g id="adidas">
   <g id="svg_44">
    <polygon class="adidas" fill="#eafcf0" points="43.5,451.9 268.8,451.9 268.8,629.2 397.5,629.2 397.5,705.3 43.5,705.3   " id="svg_45"/>
    <line fill="none" stroke="#A7A9AC" stroke-width="2" stroke-miterlimit="10" x1="298.7" y1="619.8" x2="298.7" y2="628.8" id="svg_46"/>
    <line fill="none" stroke="#A7A9AC" stroke-width="2" stroke-miterlimit="10" x1="354.9" y1="619.8" x2="354.9" y2="628.8" id="svg_47"/>
   </g>
   <g id="svg_48">
    <g id="XMLID_1_">
     <g id="svg_49">
      <path class="adidas-logo" fill="#606061" d="m218.8,609.5l-3.7,0l-1.9,0c-0.2,-0.9 -0.4,-1.6 -0.8,-2c-0.6,-0.6 -1.6,-0.9 -3,-0.9s-2.4,0.2 -2.9,0.7c-0.4,0.3 -0.6,0.8 -0.6,1.4c0,0.9 1.2,1.5 3.5,2.1c2.7,0.6 4.6,1.1 5.8,1.5c0.3,0.1 0.6,0.2 0.8,0.3c2.4,1.1 3.6,2.8 3.6,5.1c0,2.8 -1.2,4.8 -3.5,6.1c-0.3,0.2 -0.6,0.3 -0.9,0.4c-1.5,0.6 -3.2,1 -5.2,1c-2.9,0 -5.3,-0.5 -7.1,-1.6c-1.1,-0.7 -2,-1.5 -2.5,-2.5c-0.6,-1 -0.8,-2.2 -0.8,-3.5l5.9,0c0,1 0.4,1.8 1.1,2.3c0.7,0.6 1.9,0.9 3.7,0.9c1.3,0 2.3,-0.3 2.9,-0.8c0.5,-0.4 0.7,-0.9 0.7,-1.4c0,-0.9 -1.2,-1.6 -3.5,-2.1c-3.5,-0.7 -5.6,-1.3 -6.5,-1.8c-2.4,-1.1 -3.5,-2.8 -3.5,-5.2c0,-1.9 0.6,-3.5 1.8,-4.8c1.6,-1.7 3.9,-2.5 7,-2.5c2.5,0 4.6,0.4 6.1,1.1c0.1,0.1 0.3,0.1 0.4,0.2c1.1,0.6 1.9,1.4 2.5,2.4c0.3,1.1 0.6,2.3 0.6,3.6z" id="svg_50"/>
      <path class="adidas-logo" fill="#606061" d="m215.8,595.8c0,-0.1 0,-0.2 -0.1,-0.3s-0.1,-0.2 -0.3,-0.2c-0.1,0 -0.2,0 -0.4,-0.1l-0.2,0l-0.7,0l0,1.1l0.7,0c0.1,0 0.1,0 0.2,0c0.3,0 0.4,-0.1 0.5,-0.2c0.2,0 0.3,-0.2 0.3,-0.3zm0.5,-0.6c0.1,0.2 0.2,0.3 0.2,0.5c0,0.3 -0.1,0.5 -0.3,0.7s-0.4,0.3 -0.8,0.3c0.1,0.1 0.2,0.1 0.3,0.2l0.5,0.7l0.4,0.7l-0.6,0l-0.3,-0.6c-0.2,-0.4 -0.4,-0.6 -0.5,-0.8c0,0 0,0 -0.1,-0.1l-0.5,-0.1l-0.3,0l0,1.6l-0.6,0l0,-3.6l1.3,0c0.1,0 0.2,0 0.2,0c0.3,0 0.5,0 0.7,0.1c0.1,0.1 0.2,0.2 0.4,0.4z" id="svg_51"/>
      <path class="adidas-logo" fill="#606061" d="m217.9,596.5c0,-0.5 -0.1,-1 -0.4,-1.4c-0.3,-0.4 -0.6,-0.8 -1,-1s-0.9,-0.4 -1.4,-0.4l0,0c-0.5,0 -0.9,0.1 -1.4,0.4c-0.4,0.3 -0.8,0.6 -1.1,1s-0.4,0.9 -0.4,1.4s0.1,0.9 0.4,1.4c0.2,0.4 0.6,0.8 1,1c0.4,0.3 0.9,0.4 1.4,0.4l0,0c0.5,0 1,-0.1 1.4,-0.4c0.4,-0.3 0.8,-0.6 1,-1c0.4,-0.4 0.5,-0.9 0.5,-1.4zm0.6,0c0,0.6 -0.1,1.1 -0.4,1.7c-0.3,0.5 -0.7,1 -1.2,1.2c-0.5,0.3 -1.1,0.4 -1.7,0.4l0,0c-0.6,0 -1.1,-0.1 -1.7,-0.4c-0.5,-0.3 -1,-0.7 -1.2,-1.2c-0.3,-0.5 -0.4,-1.1 -0.4,-1.7c0,-0.6 0.1,-1.2 0.4,-1.7c0.3,-0.5 0.7,-0.9 1.3,-1.2c0.5,-0.3 1.1,-0.4 1.7,-0.4l0,0c0.6,0 1.1,0.2 1.7,0.4c0.5,0.3 1,0.7 1.3,1.2c0,0.6 0.2,1.1 0.2,1.7z" id="svg_52"/>
      <polygon class="adidas-logo" fill="#606061" points="185.4,569.1 201.4,595.7 185.4,595.7 175.8,595.7 160.6,570.3 149,551.1 160.6,544.2      167.8,539.8     " id="svg_53"/>
      <path class="adidas-logo" fill="#606061" d="m197,614.1l0,10.9l-5.3,0l0,-1.2c-1.8,1.2 -3.9,1.8 -6.2,1.8c0,0 0,0 -0.1,0c-6.3,0 -11.5,-5.2 -11.5,-11.5s5.1,-11.5 11.5,-11.5c0,0 0,0 0.1,0c2.3,0 4.4,0.7 6.2,1.8l0,-1.3l5.3,0l0,11zm-5.3,1.2l0,-2.4c-0.6,-2.9 -3.1,-5.1 -6.2,-5.1c0,0 0,0 -0.1,0c-3.5,0 -6.3,2.9 -6.3,6.3c0,3.5 2.8,6.3 6.3,6.3c0,0 0,0 0.1,0c3.1,0 5.7,-2.2 6.2,-5.1z" id="svg_54"/>
      <path class="adidas-logo" fill="#606061" d="m172.1,614.1l0,10.9l-5.3,0l0,-1.2c-1.8,1.2 -3.9,1.8 -6.2,1.8c0,0 0,0 -0.1,0c-6.3,0 -11.5,-5.2 -11.5,-11.5s5.1,-11.5 11.5,-11.5c0,0 0,0 0.1,0c2.3,0 4.4,0.7 6.2,1.8l0,-8.8l5.3,0l0,18.5zm-5.3,1.2l0,-2.4c-0.6,-2.9 -3.1,-5.1 -6.2,-5.1c0,0 0,0 -0.1,0c-3.5,0 -6.3,2.9 -6.3,6.3c0,3.5 2.8,6.3 6.3,6.3c0,0 0,0 0.1,0c3.1,0 5.7,-2.2 6.2,-5.1z" id="svg_55"/>
      <polygon class="adidas-logo" fill="#606061" points="160.6,585.2 166.8,595.7 160.6,595.7 141.2,595.7 127,572 126.4,571 127,570.6 145.2,559.7      " id="svg_56"/>
      <rect class="adidas-logo" x="141.2" y="602.6" fill="#606061" width="5.8" height="22.4" id="svg_57"/>
      <rect class="adidas-logo" x="141.2" y="595.8" fill="#606061" width="5.8" height="5.1" id="svg_58"/>
      <path class="adidas-logo" fill="#606061" d="m138.6,614.1l0,10.9l-5.3,0l0,-1.2c-1.8,1.2 -3.9,1.8 -6.2,1.8c0,0 0,0 -0.1,0c-6.3,0 -11.5,-5.2 -11.5,-11.5s5.1,-11.5 11.5,-11.5c0,0 0,0 0.1,0c2.3,0 4.4,0.7 6.2,1.8l0,-8.8l5.3,0l0,18.5zm-5.3,1.2l0,-2.4c-0.6,-2.9 -3.1,-5.1 -6.2,-5.1c0,0 0,0 -0.1,0c-3.5,0 -6.3,2.9 -6.3,6.3c0,3.5 2.8,6.3 6.3,6.3c0,0 0,0 0.1,0c3.1,0 5.6,-2.2 6.2,-5.1z" id="svg_59"/>
      <polygon class="adidas-logo" fill="#606061" points="127,586.9 132.3,595.7 127,595.7 106.7,595.7 103.8,590.9 122.6,579.6     " id="svg_60"/>
      <path class="adidas-logo" fill="#606061" d="m113.5,614.1l0,10.9l-5.3,0l0,-1.2c-1.8,1.2 -3.9,1.8 -6.2,1.8c0,0 0,0 -0.1,0c-6.3,0 -11.5,-5.2 -11.5,-11.5s5.1,-11.5 11.5,-11.5c0,0 0,0 0.1,0c2.3,0 4.4,0.7 6.2,1.8l0,-1.3l5.3,0l0,11zm-5.3,1.2l0,-2.4c-0.6,-2.9 -3.1,-5.1 -6.2,-5.1c0,0 0,0 -0.1,0c-3.5,0 -6.3,2.9 -6.3,6.3c0,3.5 2.8,6.3 6.3,6.3c0,0 0,0 0.1,0c3,0 5.6,-2.2 6.2,-5.1z" id="svg_61"/>
     </g>
    </g>
   </g>
  </g>
  <g id="reebok">
   <g id="svg_62">
    <rect class="reebok" x="585.6" y="629.9" fill="#fff2f2" width="254.3" height="76.5" id="svg_63"/>
    <line fill="none" stroke="#A7A9AC" stroke-width="2" stroke-miterlimit="10" x1="610" y1="621.7" x2="610" y2="630.7" id="svg_64"/>
    <line fill="none" stroke="#A7A9AC" stroke-width="2" stroke-miterlimit="10" x1="653" y1="620.9" x2="653" y2="629.9" id="svg_65"/>
   </g>
   <g id="Layer_2">
    <g id="svg_66">
     <path class="reebok-logo" fill="#606061" d="m749.7,668.8c0,0 5.7,-6.4 6,-6.8c0.3,0 4.7,0 4.7,0l-6.9,7.8l7.2,8l-4.7,0l-6.3,-7l0,7l-3.8,0l0,-19.6l3.8,0l0,10.6z" id="svg_67"/>
     <path class="reebok-logo" fill="#606061" d="m743.9,668.4l0,3.4c0,4 -2.8,6.3 -6.6,6.4c-0.2,0 -0.6,0 -0.8,0c-3.9,-0.1 -6.6,-2.4 -6.6,-6.4l0,-3.4c0,-4 2.8,-6.3 6.7,-6.4c0.2,0 0.6,0 0.8,0c3.7,0.1 6.5,2.4 6.5,6.4m-7.3,-3.1c-1.5,0.1 -3,0.9 -3,3.1l0,3.5c0,2.1 1.4,2.9 3,3c0.1,0 0.5,0 0.5,0c1.5,-0.1 3,-0.9 3,-3l0,-3.5c0,-2.2 -1.5,-3 -3,-3.1c-0.2,0 -0.3,0 -0.5,0" id="svg_68"/>
     <path class="reebok-logo" fill="#606061" d="m721.3,662c-1.8,0 -3,0.5 -3.6,1l0,-4.9l-3.8,0l0,19.6l0.7,0c0,0 1.7,-0.9 1.8,-1c0.2,0.3 1.9,1.5 4.2,1.5c0.3,0 0.5,0 0.8,0c3.8,-0.1 6.6,-2.5 6.6,-6.4l0,-3.4c-0.1,-3.9 -2.9,-6.4 -6.7,-6.4m2.8,9.9c0,2.1 -1.5,3 -3,3.1c-0.1,0 -0.5,0 -0.5,0c-1.5,-0.1 -3,-0.9 -3,-3.1l0,-3.5c0,-2.2 1.5,-3 3,-3.1c0.2,0 0.3,0 0.5,0c1.5,0.1 3,0.9 3,3.1l0,3.5z" id="svg_69"/>
     <path class="reebok-logo" fill="#606061" d="m711.8,671.1l0,-2.8c0,-4 -2.8,-6.3 -6.7,-6.4l-0.7,0c-3.9,0.1 -6.6,2.4 -6.6,6.4l0,3.4c0,3.8 2.9,6.2 6.6,6.4c0.4,0 0.6,0 0.9,0c4.6,0 6.3,-2.4 6.6,-5l-3.5,0c-0.1,0.5 -0.3,1.8 -3.2,1.8c-0.5,0 -1.2,-0.1 -1.7,-0.3c-2.2,-0.7 -1.8,-3.4 -1.8,-3.5l10.1,0l0,0zm-10.3,-3c0,-2.1 1.4,-2.9 3,-3c0.2,0 0.4,0 0.5,0c1.7,0.1 3,0.9 3,3c0,0.1 0,0.2 0,0.3l-6.6,0c0.1,-0.1 0.1,-0.2 0.1,-0.3" id="svg_70"/>
     <path class="reebok-logo" fill="#606061" d="m695.8,671.1l0,-2.8c0,-4 -2.8,-6.3 -6.7,-6.4l-0.7,0c-3.9,0.1 -6.7,2.4 -6.7,6.4l0,3.4c0,3.8 2.9,6.2 6.6,6.4c0.4,0 0.6,0 0.9,0c4.6,0 6.3,-2.4 6.6,-5l-3.5,0c-0.1,0.5 -0.3,1.8 -3.2,1.8c-0.5,0 -1.2,-0.1 -1.7,-0.3c-2.2,-0.7 -1.8,-3.4 -1.8,-3.5l10.2,0l0,0zm-10.3,-3c0,-2.1 1.4,-2.9 3,-3c0.2,0 0.4,0 0.5,0c1.7,0.1 3,0.9 3,3c0,0.1 0,0.2 0,0.3l-6.6,0c0.1,-0.1 0.1,-0.2 0.1,-0.3" id="svg_71"/>
     <path class="reebok-logo" fill="#606061" d="m681.3,677.7l-7.3,-8.1c0.4,0 0.7,0 1.1,0c2.5,0 5.6,-1.6 5.6,-5.6c0,-4.8 -4,-6 -7.5,-6l-8.5,0l0,19.6l3.8,0l0,-8.8l7.9,8.8l4.9,0.1l0,0zm-12.8,-16.2c0,0 2.5,0 4.6,0s4,0.7 4,2.7s-1.2,2.8 -4,2.8s-4.6,0 -4.6,0l0,-5.5z" id="svg_72"/>
    </g>
   </g>
  </g>
  <g id="wc">
   <g id="svg_73">
    <rect x="802.4" y="473.6" fill="none" stroke="#A7A9AC" stroke-width="2" stroke-miterlimit="10" width="47.5" height="91" id="svg_74"/>
    <text transform="matrix(1,0,0,1,816.6668,523.6056) " fill="#6E6266" font-family="'ArialMT'" font-size="12" id="svg_75">WC</text>
   </g>
   <g id="svg_76">
    <rect x="43.8" y="181" fill="none" stroke="#939598" stroke-width="2" stroke-miterlimit="10" width="47.5" height="75" id="svg_77"/>
    <text transform="matrix(1,0,0,1,58.6668,225.6056) " fill="#6E6266" font-family="'ArialMT'" font-size="12" id="svg_78">WC</text>
   </g>
  </g>
 </g>
</svg>